<mxfile host="Electron" modified="2024-01-05T08:31:15.612Z" agent="Mozilla/5.0 (Windows NT 10.0; Win64; x64) AppleWebKit/537.36 (KHTML, like Gecko) draw.io/21.6.8 Chrome/114.0.5735.289 Electron/25.5.0 Safari/537.36" etag="JdJv6AuxqEBNOXV3KFUR" version="21.6.8" type="device">
  <diagram name="Page-1" id="SAACa58Hzo_h5zOOxqzz">
    <mxGraphModel dx="975" dy="630" grid="1" gridSize="10" guides="1" tooltips="1" connect="1" arrows="1" fold="1" page="1" pageScale="1" pageWidth="1169" pageHeight="827" math="0" shadow="0">
      <root>
        <mxCell id="0" />
        <mxCell id="1" parent="0" />
        <mxCell id="EGpCNMN0tSYc9mSZgYw5-1" value="Buy a car" style="rounded=0;whiteSpace=wrap;html=1;" parent="1" vertex="1">
          <mxGeometry x="120" y="300" width="60" height="40" as="geometry" />
        </mxCell>
        <mxCell id="EGpCNMN0tSYc9mSZgYw5-2" value="" style="endArrow=none;html=1;rounded=0;exitX=1;exitY=0.5;exitDx=0;exitDy=0;entryX=0;entryY=0.5;entryDx=0;entryDy=0;" parent="1" source="EGpCNMN0tSYc9mSZgYw5-1" target="EGpCNMN0tSYc9mSZgYw5-6" edge="1">
          <mxGeometry width="50" height="50" relative="1" as="geometry">
            <mxPoint x="500" y="340" as="sourcePoint" />
            <mxPoint x="240" y="280" as="targetPoint" />
          </mxGeometry>
        </mxCell>
        <mxCell id="EGpCNMN0tSYc9mSZgYw5-3" value="" style="endArrow=none;html=1;rounded=0;exitX=1;exitY=0.5;exitDx=0;exitDy=0;entryX=0;entryY=0.75;entryDx=0;entryDy=0;" parent="1" source="EGpCNMN0tSYc9mSZgYw5-1" target="EGpCNMN0tSYc9mSZgYw5-5" edge="1">
          <mxGeometry width="50" height="50" relative="1" as="geometry">
            <mxPoint x="500" y="340" as="sourcePoint" />
            <mxPoint x="240" y="360" as="targetPoint" />
          </mxGeometry>
        </mxCell>
        <mxCell id="EGpCNMN0tSYc9mSZgYw5-4" value="Low safety" style="rounded=0;whiteSpace=wrap;html=1;" parent="1" vertex="1">
          <mxGeometry x="390" y="60" width="80" height="40" as="geometry" />
        </mxCell>
        <mxCell id="EGpCNMN0tSYc9mSZgYw5-5" value="Budget &amp;gt;2000000" style="rounded=0;whiteSpace=wrap;html=1;" parent="1" vertex="1">
          <mxGeometry x="240" y="400" width="110" height="40" as="geometry" />
        </mxCell>
        <mxCell id="EGpCNMN0tSYc9mSZgYw5-6" value="Budget &amp;lt; 2000000" style="rounded=0;whiteSpace=wrap;html=1;" parent="1" vertex="1">
          <mxGeometry x="230" y="170" width="110" height="40" as="geometry" />
        </mxCell>
        <mxCell id="EGpCNMN0tSYc9mSZgYw5-7" value="High Safety" style="rounded=0;whiteSpace=wrap;html=1;" parent="1" vertex="1">
          <mxGeometry x="400" y="320" width="80" height="40" as="geometry" />
        </mxCell>
        <mxCell id="EGpCNMN0tSYc9mSZgYw5-8" value="Mid Safety" style="rounded=0;whiteSpace=wrap;html=1;" parent="1" vertex="1">
          <mxGeometry x="400" y="170" width="80" height="40" as="geometry" />
        </mxCell>
        <mxCell id="EGpCNMN0tSYc9mSZgYw5-10" value="" style="endArrow=none;html=1;rounded=0;exitX=1;exitY=0.5;exitDx=0;exitDy=0;entryX=0;entryY=0.5;entryDx=0;entryDy=0;" parent="1" source="EGpCNMN0tSYc9mSZgYw5-6" target="EGpCNMN0tSYc9mSZgYw5-7" edge="1">
          <mxGeometry width="50" height="50" relative="1" as="geometry">
            <mxPoint x="500" y="340" as="sourcePoint" />
            <mxPoint x="550" y="290" as="targetPoint" />
          </mxGeometry>
        </mxCell>
        <mxCell id="EGpCNMN0tSYc9mSZgYw5-11" value="" style="endArrow=none;html=1;rounded=0;entryX=0;entryY=0.75;entryDx=0;entryDy=0;exitX=0;exitY=0.5;exitDx=0;exitDy=0;" parent="1" source="EGpCNMN0tSYc9mSZgYw5-8" target="EGpCNMN0tSYc9mSZgYw5-4" edge="1">
          <mxGeometry width="50" height="50" relative="1" as="geometry">
            <mxPoint x="500" y="340" as="sourcePoint" />
            <mxPoint x="550" y="290" as="targetPoint" />
            <Array as="points">
              <mxPoint x="340" y="190" />
            </Array>
          </mxGeometry>
        </mxCell>
        <mxCell id="EGpCNMN0tSYc9mSZgYw5-12" value="" style="endArrow=none;html=1;rounded=0;exitX=1;exitY=0.5;exitDx=0;exitDy=0;" parent="1" source="EGpCNMN0tSYc9mSZgYw5-4" target="EGpCNMN0tSYc9mSZgYw5-13" edge="1">
          <mxGeometry width="50" height="50" relative="1" as="geometry">
            <mxPoint x="500" y="340" as="sourcePoint" />
            <mxPoint x="540" y="230" as="targetPoint" />
          </mxGeometry>
        </mxCell>
        <mxCell id="EGpCNMN0tSYc9mSZgYw5-13" value="Don;t buy" style="rounded=0;whiteSpace=wrap;html=1;" parent="1" vertex="1">
          <mxGeometry x="562.5" y="60" width="110" height="40" as="geometry" />
        </mxCell>
        <mxCell id="EGpCNMN0tSYc9mSZgYw5-14" value="Bad comfort" style="rounded=0;whiteSpace=wrap;html=1;" parent="1" vertex="1">
          <mxGeometry x="560" y="130" width="115" height="40" as="geometry" />
        </mxCell>
        <mxCell id="EGpCNMN0tSYc9mSZgYw5-15" value="Very Good Comfort" style="rounded=0;whiteSpace=wrap;html=1;" parent="1" vertex="1">
          <mxGeometry x="560" y="380" width="120" height="40" as="geometry" />
        </mxCell>
        <mxCell id="EGpCNMN0tSYc9mSZgYw5-16" value="Average comfort" style="rounded=0;whiteSpace=wrap;html=1;" parent="1" vertex="1">
          <mxGeometry x="560" y="214" width="115" height="36" as="geometry" />
        </mxCell>
        <mxCell id="EGpCNMN0tSYc9mSZgYw5-17" value="Good comfort" style="rounded=0;whiteSpace=wrap;html=1;" parent="1" vertex="1">
          <mxGeometry x="560" y="280" width="120" height="40" as="geometry" />
        </mxCell>
        <mxCell id="EGpCNMN0tSYc9mSZgYw5-18" value="" style="endArrow=none;html=1;rounded=0;entryX=0;entryY=0.5;entryDx=0;entryDy=0;exitX=0;exitY=0.5;exitDx=0;exitDy=0;" parent="1" source="EGpCNMN0tSYc9mSZgYw5-16" target="EGpCNMN0tSYc9mSZgYw5-14" edge="1">
          <mxGeometry width="50" height="50" relative="1" as="geometry">
            <mxPoint x="540" y="320" as="sourcePoint" />
            <mxPoint x="550" y="290" as="targetPoint" />
            <Array as="points">
              <mxPoint x="480" y="190" />
            </Array>
          </mxGeometry>
        </mxCell>
        <mxCell id="EGpCNMN0tSYc9mSZgYw5-19" value="" style="endArrow=none;html=1;rounded=0;exitX=1;exitY=0.5;exitDx=0;exitDy=0;entryX=0;entryY=0.5;entryDx=0;entryDy=0;" parent="1" source="EGpCNMN0tSYc9mSZgYw5-7" target="EGpCNMN0tSYc9mSZgYw5-17" edge="1">
          <mxGeometry width="50" height="50" relative="1" as="geometry">
            <mxPoint x="500" y="340" as="sourcePoint" />
            <mxPoint x="550" y="290" as="targetPoint" />
          </mxGeometry>
        </mxCell>
        <mxCell id="EGpCNMN0tSYc9mSZgYw5-21" value="" style="endArrow=none;html=1;rounded=0;exitX=1;exitY=0.5;exitDx=0;exitDy=0;" parent="1" source="EGpCNMN0tSYc9mSZgYw5-14" target="EGpCNMN0tSYc9mSZgYw5-22" edge="1">
          <mxGeometry width="50" height="50" relative="1" as="geometry">
            <mxPoint x="500" y="340" as="sourcePoint" />
            <mxPoint x="740" y="230" as="targetPoint" />
          </mxGeometry>
        </mxCell>
        <mxCell id="EGpCNMN0tSYc9mSZgYw5-22" value="Don&#39;t buy" style="rounded=0;whiteSpace=wrap;html=1;" parent="1" vertex="1">
          <mxGeometry x="730" y="130" width="80" height="40" as="geometry" />
        </mxCell>
        <mxCell id="EGpCNMN0tSYc9mSZgYw5-24" value="" style="endArrow=none;html=1;rounded=0;exitX=1;exitY=0.5;exitDx=0;exitDy=0;entryX=0;entryY=0.5;entryDx=0;entryDy=0;" parent="1" source="EGpCNMN0tSYc9mSZgYw5-16" target="EGpCNMN0tSYc9mSZgYw5-29" edge="1">
          <mxGeometry width="50" height="50" relative="1" as="geometry">
            <mxPoint x="500" y="340" as="sourcePoint" />
            <mxPoint x="720" y="230" as="targetPoint" />
          </mxGeometry>
        </mxCell>
        <mxCell id="EGpCNMN0tSYc9mSZgYw5-25" value="" style="endArrow=none;html=1;rounded=0;entryX=0;entryY=0.5;entryDx=0;entryDy=0;exitX=1;exitY=0.5;exitDx=0;exitDy=0;" parent="1" source="EGpCNMN0tSYc9mSZgYw5-7" target="EGpCNMN0tSYc9mSZgYw5-15" edge="1">
          <mxGeometry width="50" height="50" relative="1" as="geometry">
            <mxPoint x="500" y="340" as="sourcePoint" />
            <mxPoint x="550" y="290" as="targetPoint" />
          </mxGeometry>
        </mxCell>
        <mxCell id="EGpCNMN0tSYc9mSZgYw5-26" value="" style="endArrow=none;html=1;rounded=0;exitX=1;exitY=0.5;exitDx=0;exitDy=0;" parent="1" source="EGpCNMN0tSYc9mSZgYw5-5" target="EGpCNMN0tSYc9mSZgYw5-27" edge="1">
          <mxGeometry width="50" height="50" relative="1" as="geometry">
            <mxPoint x="500" y="340" as="sourcePoint" />
            <mxPoint x="400" y="420" as="targetPoint" />
          </mxGeometry>
        </mxCell>
        <mxCell id="EGpCNMN0tSYc9mSZgYw5-27" value="Don&#39;t buy" style="rounded=0;whiteSpace=wrap;html=1;" parent="1" vertex="1">
          <mxGeometry x="400" y="400" width="80" height="40" as="geometry" />
        </mxCell>
        <mxCell id="EGpCNMN0tSYc9mSZgYw5-29" value="Milage &amp;lt;= 50" style="rounded=0;whiteSpace=wrap;html=1;" parent="1" vertex="1">
          <mxGeometry x="720" y="214" width="80" height="36" as="geometry" />
        </mxCell>
        <mxCell id="EGpCNMN0tSYc9mSZgYw5-30" value="Milage &amp;lt; 50" style="rounded=0;whiteSpace=wrap;html=1;" parent="1" vertex="1">
          <mxGeometry x="720" y="380" width="80" height="40" as="geometry" />
        </mxCell>
        <mxCell id="EGpCNMN0tSYc9mSZgYw5-31" value="Milage &amp;lt;= 60&amp;nbsp;" style="rounded=0;whiteSpace=wrap;html=1;" parent="1" vertex="1">
          <mxGeometry x="720" y="280" width="80" height="40" as="geometry" />
        </mxCell>
        <mxCell id="EGpCNMN0tSYc9mSZgYw5-34" value="" style="endArrow=none;html=1;rounded=0;entryX=0;entryY=0.5;entryDx=0;entryDy=0;exitX=1;exitY=0.5;exitDx=0;exitDy=0;" parent="1" source="EGpCNMN0tSYc9mSZgYw5-15" target="EGpCNMN0tSYc9mSZgYw5-30" edge="1">
          <mxGeometry width="50" height="50" relative="1" as="geometry">
            <mxPoint x="680" y="390" as="sourcePoint" />
            <mxPoint x="550" y="290" as="targetPoint" />
          </mxGeometry>
        </mxCell>
        <mxCell id="EGpCNMN0tSYc9mSZgYw5-35" value="" style="endArrow=none;html=1;rounded=0;entryX=0;entryY=0.5;entryDx=0;entryDy=0;exitX=1;exitY=0.5;exitDx=0;exitDy=0;" parent="1" source="EGpCNMN0tSYc9mSZgYw5-17" target="EGpCNMN0tSYc9mSZgYw5-31" edge="1">
          <mxGeometry width="50" height="50" relative="1" as="geometry">
            <mxPoint x="500" y="340" as="sourcePoint" />
            <mxPoint x="550" y="290" as="targetPoint" />
          </mxGeometry>
        </mxCell>
        <mxCell id="EGpCNMN0tSYc9mSZgYw5-36" value="Don&#39;t buy" style="rounded=0;whiteSpace=wrap;html=1;" parent="1" vertex="1">
          <mxGeometry x="840" y="384" width="80" height="30" as="geometry" />
        </mxCell>
        <mxCell id="EGpCNMN0tSYc9mSZgYw5-37" value="" style="endArrow=none;html=1;rounded=0;entryX=0;entryY=0.5;entryDx=0;entryDy=0;exitX=1;exitY=0.5;exitDx=0;exitDy=0;" parent="1" source="EGpCNMN0tSYc9mSZgYw5-30" target="EGpCNMN0tSYc9mSZgYw5-36" edge="1">
          <mxGeometry width="50" height="50" relative="1" as="geometry">
            <mxPoint x="500" y="340" as="sourcePoint" />
            <mxPoint x="550" y="290" as="targetPoint" />
          </mxGeometry>
        </mxCell>
        <mxCell id="EGpCNMN0tSYc9mSZgYw5-38" value="" style="endArrow=none;html=1;rounded=0;exitX=1;exitY=0.5;exitDx=0;exitDy=0;entryX=0;entryY=0.5;entryDx=0;entryDy=0;" parent="1" source="EGpCNMN0tSYc9mSZgYw5-29" target="EGpCNMN0tSYc9mSZgYw5-40" edge="1">
          <mxGeometry width="50" height="50" relative="1" as="geometry">
            <mxPoint x="500" y="340" as="sourcePoint" />
            <mxPoint x="850" y="230" as="targetPoint" />
          </mxGeometry>
        </mxCell>
        <mxCell id="EGpCNMN0tSYc9mSZgYw5-40" value="Red" style="rounded=0;whiteSpace=wrap;html=1;" parent="1" vertex="1">
          <mxGeometry x="840" y="170" width="80" height="30" as="geometry" />
        </mxCell>
        <mxCell id="EGpCNMN0tSYc9mSZgYw5-41" value="White" style="rounded=0;whiteSpace=wrap;html=1;" parent="1" vertex="1">
          <mxGeometry x="840" y="305" width="80" height="30" as="geometry" />
        </mxCell>
        <mxCell id="EGpCNMN0tSYc9mSZgYw5-42" value="Blue" style="rounded=0;whiteSpace=wrap;html=1;" parent="1" vertex="1">
          <mxGeometry x="840" y="240" width="80" height="30" as="geometry" />
        </mxCell>
        <mxCell id="EGpCNMN0tSYc9mSZgYw5-43" value="" style="endArrow=none;html=1;rounded=0;entryX=0;entryY=0.5;entryDx=0;entryDy=0;exitX=1;exitY=0.5;exitDx=0;exitDy=0;" parent="1" source="EGpCNMN0tSYc9mSZgYw5-29" target="EGpCNMN0tSYc9mSZgYw5-42" edge="1">
          <mxGeometry width="50" height="50" relative="1" as="geometry">
            <mxPoint x="500" y="340" as="sourcePoint" />
            <mxPoint x="550" y="290" as="targetPoint" />
          </mxGeometry>
        </mxCell>
        <mxCell id="EGpCNMN0tSYc9mSZgYw5-45" value="" style="endArrow=none;html=1;rounded=0;entryX=0;entryY=0.5;entryDx=0;entryDy=0;exitX=1;exitY=0.5;exitDx=0;exitDy=0;entryPerimeter=0;" parent="1" source="EGpCNMN0tSYc9mSZgYw5-31" target="EGpCNMN0tSYc9mSZgYw5-41" edge="1">
          <mxGeometry width="50" height="50" relative="1" as="geometry">
            <mxPoint x="500" y="340" as="sourcePoint" />
            <mxPoint x="550" y="290" as="targetPoint" />
          </mxGeometry>
        </mxCell>
        <mxCell id="EGpCNMN0tSYc9mSZgYw5-47" value="Don&#39;t buy" style="rounded=0;whiteSpace=wrap;html=1;" parent="1" vertex="1">
          <mxGeometry x="960" y="237.5" width="80" height="35" as="geometry" />
        </mxCell>
        <mxCell id="EGpCNMN0tSYc9mSZgYw5-48" value="Don&#39;t buy" style="rounded=0;whiteSpace=wrap;html=1;" parent="1" vertex="1">
          <mxGeometry x="960" y="170" width="80" height="30" as="geometry" />
        </mxCell>
        <mxCell id="EGpCNMN0tSYc9mSZgYw5-49" value="Buy" style="rounded=0;whiteSpace=wrap;html=1;fontStyle=1" parent="1" vertex="1">
          <mxGeometry x="960" y="302.5" width="80" height="35" as="geometry" />
        </mxCell>
        <mxCell id="EGpCNMN0tSYc9mSZgYw5-50" value="" style="endArrow=none;html=1;rounded=0;exitX=1;exitY=0.5;exitDx=0;exitDy=0;entryX=0;entryY=0.5;entryDx=0;entryDy=0;" parent="1" source="EGpCNMN0tSYc9mSZgYw5-41" target="EGpCNMN0tSYc9mSZgYw5-49" edge="1">
          <mxGeometry width="50" height="50" relative="1" as="geometry">
            <mxPoint x="500" y="340" as="sourcePoint" />
            <mxPoint x="550" y="290" as="targetPoint" />
          </mxGeometry>
        </mxCell>
        <mxCell id="EGpCNMN0tSYc9mSZgYw5-51" value="" style="endArrow=none;html=1;rounded=0;exitX=0;exitY=0.5;exitDx=0;exitDy=0;entryX=1;entryY=0.5;entryDx=0;entryDy=0;" parent="1" source="EGpCNMN0tSYc9mSZgYw5-48" target="EGpCNMN0tSYc9mSZgYw5-40" edge="1">
          <mxGeometry width="50" height="50" relative="1" as="geometry">
            <mxPoint x="500" y="340" as="sourcePoint" />
            <mxPoint x="550" y="290" as="targetPoint" />
          </mxGeometry>
        </mxCell>
        <mxCell id="EGpCNMN0tSYc9mSZgYw5-52" value="" style="endArrow=none;html=1;rounded=0;exitX=0;exitY=0.5;exitDx=0;exitDy=0;entryX=1;entryY=0.5;entryDx=0;entryDy=0;" parent="1" source="EGpCNMN0tSYc9mSZgYw5-47" target="EGpCNMN0tSYc9mSZgYw5-42" edge="1">
          <mxGeometry width="50" height="50" relative="1" as="geometry">
            <mxPoint x="500" y="340" as="sourcePoint" />
            <mxPoint x="550" y="290" as="targetPoint" />
          </mxGeometry>
        </mxCell>
        <mxCell id="EGpCNMN0tSYc9mSZgYw5-53" value="&lt;span style=&quot;font-family: Helvetica; font-size: 16px; font-style: normal; font-variant-ligatures: normal; font-variant-caps: normal; font-weight: 400; letter-spacing: normal; orphans: 2; text-align: center; text-indent: 0px; text-transform: none; widows: 2; word-spacing: 0px; -webkit-text-stroke-width: 0px; text-decoration-thickness: initial; text-decoration-style: initial; text-decoration-color: initial; float: none; background-color: rgb(24, 20, 29); display: inline !important;&quot;&gt;&lt;font color=&quot;#ffffff&quot;&gt;Fig: Decision Tree representing a person buying a car&lt;/font&gt;&lt;/span&gt;" style="text;whiteSpace=wrap;html=1;" parent="1" vertex="1">
          <mxGeometry x="360" y="510" width="410" height="40" as="geometry" />
        </mxCell>
      </root>
    </mxGraphModel>
  </diagram>
</mxfile>
